<svg width="100" height="100" viewBox="0 0 100 100" fill="none" xmlns="http://www.w3.org/2000/svg">
<path d="M81.25 93.75H75V78.125C74.995 73.9825 73.3472 70.0111 70.4181 67.0819C67.4889 64.1528 63.5175 62.505 59.375 62.5H40.625C36.4825 62.505 32.5111 64.1528 29.5819 67.0819C26.6528 70.0111 25.005 73.9825 25 78.125V93.75H18.75V78.125C18.7583 72.3259 21.0656 66.7667 25.1662 62.6662C29.2667 58.5656 34.8259 56.2583 40.625 56.25H59.375C65.1741 56.2583 70.7333 58.5656 74.8338 62.6662C78.9344 66.7667 81.2417 72.3259 81.25 78.125V93.75ZM68.75 18.75V31.25C68.75 34.6969 65.9469 37.5 62.5 37.5H59.375C58.5462 37.5 57.7513 37.8292 57.1653 38.4153C56.5792 39.0013 56.25 39.7962 56.25 40.625C56.25 41.4538 56.5792 42.2487 57.1653 42.8347C57.7513 43.4208 58.5462 43.75 59.375 43.75H62.5C69.3937 43.75 75 38.1438 75 31.25V18.75H68.75ZM50 50C37.9375 50 28.125 40.1875 28.125 28.125C28.125 16.0625 37.9375 6.25 50 6.25C56.2156 6.25 62.1562 8.90625 66.3031 13.5406L61.6469 17.7094C60.1813 16.0705 58.3864 14.7594 56.3794 13.8617C54.3724 12.9641 52.1986 12.5 50 12.5C41.3844 12.5 34.375 19.5094 34.375 28.125C34.375 36.7406 41.3844 43.75 50 43.75V50Z" fill="black"/>
</svg>
