<svg width="1111" height="389" viewBox="0 0 1111 389" fill="none" xmlns="http://www.w3.org/2000/svg">
<path d="M362.304 269V165.64H379.784V269H362.304ZM327.648 178.56V162.6H414.44V178.56H327.648ZM442.426 270.52C435.13 270.52 428.543 268.899 422.666 265.656C416.89 262.312 412.279 257.752 408.834 251.976C405.49 246.2 403.818 239.715 403.818 232.52C403.818 225.325 405.49 218.891 408.834 213.216C412.178 207.44 416.687 202.88 422.362 199.536C428.138 196.192 434.522 194.52 441.514 194.52C448.303 194.52 454.282 196.091 459.45 199.232C464.719 202.373 468.823 206.68 471.762 212.152C474.802 217.624 476.322 223.856 476.322 230.848C476.322 232.064 476.22 233.331 476.018 234.648C475.916 235.864 475.714 237.232 475.41 238.752H415.522V225.072H466.746L460.514 230.544C460.311 226.085 459.45 222.336 457.93 219.296C456.41 216.256 454.231 213.925 451.394 212.304C448.658 210.683 445.263 209.872 441.21 209.872C436.954 209.872 433.255 210.784 430.114 212.608C426.972 214.432 424.54 217.016 422.818 220.36C421.095 223.603 420.234 227.504 420.234 232.064C420.234 236.624 421.146 240.627 422.97 244.072C424.794 247.517 427.378 250.203 430.722 252.128C434.066 253.952 437.916 254.864 442.274 254.864C446.023 254.864 449.468 254.205 452.61 252.888C455.852 251.571 458.588 249.645 460.818 247.112L471.458 257.904C467.911 262.059 463.604 265.2 458.538 267.328C453.471 269.456 448.1 270.52 442.426 270.52ZM523.317 270.52C516.122 270.52 509.586 268.848 503.709 265.504C497.933 262.16 493.373 257.6 490.029 251.824C486.685 246.048 485.013 239.613 485.013 232.52C485.013 225.325 486.685 218.891 490.029 213.216C493.373 207.44 497.933 202.88 503.709 199.536C509.586 196.192 516.122 194.52 523.317 194.52C528.992 194.52 534.261 195.635 539.125 197.864C544.09 199.992 548.296 203.083 551.741 207.136L540.797 218.232C538.669 215.699 536.085 213.824 533.045 212.608C530.106 211.291 526.864 210.632 523.317 210.632C519.162 210.632 515.464 211.595 512.221 213.52C509.08 215.344 506.597 217.877 504.773 221.12C503.05 224.363 502.189 228.163 502.189 232.52C502.189 236.776 503.05 240.576 504.773 243.92C506.597 247.163 509.08 249.747 512.221 251.672C515.464 253.496 519.162 254.408 523.317 254.408C526.864 254.408 530.106 253.8 533.045 252.584C536.085 251.267 538.669 249.341 540.797 246.808L551.741 257.904C548.296 261.957 544.09 265.099 539.125 267.328C534.261 269.456 528.992 270.52 523.317 270.52ZM613.803 269V226.896C613.803 222.032 612.233 218.029 609.091 214.888C606.051 211.747 602.099 210.176 597.235 210.176C593.993 210.176 591.105 210.885 588.571 212.304C586.038 213.723 584.062 215.699 582.643 218.232C581.225 220.765 580.515 223.653 580.515 226.896L573.979 223.248C573.979 217.675 575.195 212.76 577.627 208.504C580.059 204.147 583.403 200.752 587.659 198.32C592.017 195.787 596.881 194.52 602.251 194.52C607.723 194.52 612.587 195.736 616.843 198.168C621.099 200.6 624.443 203.995 626.875 208.352C629.307 212.608 630.523 217.573 630.523 223.248V269H613.803ZM563.795 269V159.56H580.515V269H563.795ZM697.522 269V226.896C697.522 222.032 695.952 218.029 692.81 214.888C689.77 211.747 685.818 210.176 680.954 210.176C677.712 210.176 674.824 210.885 672.29 212.304C669.757 213.723 667.781 215.699 666.362 218.232C664.944 220.765 664.234 223.653 664.234 226.896L657.698 223.248C657.698 217.675 658.914 212.76 661.346 208.504C663.778 204.147 667.122 200.752 671.378 198.32C675.736 195.787 680.6 194.52 685.97 194.52C691.442 194.52 696.306 195.939 700.562 198.776C704.818 201.512 708.162 205.109 710.594 209.568C713.026 213.925 714.242 218.485 714.242 223.248V269H697.522ZM647.514 269V196.04H664.234V269H647.514ZM764.673 270.52C757.58 270.52 751.145 268.848 745.369 265.504C739.593 262.059 734.982 257.448 731.537 251.672C728.193 245.896 726.521 239.461 726.521 232.368C726.521 225.275 728.193 218.891 731.537 213.216C734.982 207.541 739.593 203.032 745.369 199.688C751.145 196.243 757.58 194.52 764.673 194.52C771.868 194.52 778.353 196.192 784.129 199.536C789.905 202.88 794.465 207.44 797.809 213.216C801.254 218.891 802.977 225.275 802.977 232.368C802.977 239.461 801.254 245.896 797.809 251.672C794.465 257.448 789.905 262.059 784.129 265.504C778.353 268.848 771.868 270.52 764.673 270.52ZM764.673 254.408C768.828 254.408 772.476 253.496 775.617 251.672C778.86 249.747 781.342 247.112 783.065 243.768C784.889 240.424 785.801 236.624 785.801 232.368C785.801 228.112 784.889 224.363 783.065 221.12C781.241 217.877 778.758 215.344 775.617 213.52C772.476 211.595 768.828 210.632 764.673 210.632C760.62 210.632 756.972 211.595 753.729 213.52C750.588 215.344 748.105 217.877 746.281 221.12C744.558 224.363 743.697 228.112 743.697 232.368C743.697 236.624 744.558 240.424 746.281 243.768C748.105 247.112 750.588 249.747 753.729 251.672C756.972 253.496 760.62 254.408 764.673 254.408ZM816.881 269V159.56H833.601V269H816.881ZM885.65 270.52C878.556 270.52 872.122 268.848 866.346 265.504C860.57 262.059 855.959 257.448 852.514 251.672C849.17 245.896 847.498 239.461 847.498 232.368C847.498 225.275 849.17 218.891 852.514 213.216C855.959 207.541 860.57 203.032 866.346 199.688C872.122 196.243 878.556 194.52 885.65 194.52C892.844 194.52 899.33 196.192 905.106 199.536C910.882 202.88 915.442 207.44 918.786 213.216C922.231 218.891 923.954 225.275 923.954 232.368C923.954 239.461 922.231 245.896 918.786 251.672C915.442 257.448 910.882 262.059 905.106 265.504C899.33 268.848 892.844 270.52 885.65 270.52ZM885.65 254.408C889.804 254.408 893.452 253.496 896.594 251.672C899.836 249.747 902.319 247.112 904.042 243.768C905.866 240.424 906.778 236.624 906.778 232.368C906.778 228.112 905.866 224.363 904.042 221.12C902.218 217.877 899.735 215.344 896.594 213.52C893.452 211.595 889.804 210.632 885.65 210.632C881.596 210.632 877.948 211.595 874.706 213.52C871.564 215.344 869.082 217.877 867.258 221.12C865.535 224.363 864.674 228.112 864.674 232.368C864.674 236.624 865.535 240.424 867.258 243.768C869.082 247.112 871.564 249.747 874.706 251.672C877.948 253.496 881.596 254.408 885.65 254.408ZM968.258 300.92C960.557 300.92 953.818 299.501 948.042 296.664C942.266 293.928 937.605 290.027 934.058 284.96L945.002 274.016C947.941 277.664 951.285 280.4 955.034 282.224C958.783 284.048 963.293 284.96 968.562 284.96C975.149 284.96 980.367 283.237 984.218 279.792C988.069 276.448 989.994 271.837 989.994 265.96V248.024L992.882 231.912L989.994 215.648V196.04H1006.71V265.96C1006.71 272.952 1005.09 279.032 1001.85 284.2C998.607 289.469 994.098 293.573 988.322 296.512C982.546 299.451 975.858 300.92 968.258 300.92ZM967.498 267.48C961.013 267.48 955.135 265.909 949.866 262.768C944.698 259.525 940.594 255.117 937.554 249.544C934.615 243.971 933.146 237.739 933.146 230.848C933.146 223.957 934.615 217.776 937.554 212.304C940.594 206.832 944.698 202.525 949.866 199.384C955.135 196.141 961.013 194.52 967.498 194.52C973.274 194.52 978.341 195.685 982.698 198.016C987.055 200.347 990.45 203.589 992.882 207.744C995.314 211.797 996.53 216.56 996.53 222.032V239.968C996.53 245.339 995.263 250.101 992.73 254.256C990.298 258.411 986.903 261.653 982.546 263.984C978.189 266.315 973.173 267.48 967.498 267.48ZM970.842 251.672C974.895 251.672 978.442 250.811 981.482 249.088C984.522 247.365 986.853 244.984 988.474 241.944C990.197 238.803 991.058 235.155 991.058 231C991.058 226.845 990.197 223.248 988.474 220.208C986.853 217.067 984.522 214.635 981.482 212.912C978.442 211.189 974.895 210.328 970.842 210.328C966.789 210.328 963.191 211.189 960.05 212.912C957.01 214.635 954.629 217.067 952.906 220.208C951.183 223.248 950.322 226.845 950.322 231C950.322 235.053 951.183 238.651 952.906 241.792C954.629 244.933 957.01 247.365 960.05 249.088C963.191 250.811 966.789 251.672 970.842 251.672ZM1048.85 269.76L1017.69 196.04H1036.08L1057.36 250.152H1052.04L1074.54 196.04H1093.08L1059.18 269.76H1048.85ZM1027.11 299.4L1049.76 252.736L1059.18 269.76L1045.66 299.4H1027.11Z" fill="white"/>
<path fill-rule="evenodd" clip-rule="evenodd" d="M184.324 223.878C185.127 218.986 185.529 213.873 185.529 208.541C185.529 207.151 185.501 205.776 185.445 204.417L163.592 257.532C169.356 252.427 174.142 246.384 177.95 239.402C180.642 234.539 182.767 229.364 184.324 223.878ZM205.462 267.285C208.575 262.314 211.303 257.049 213.648 251.492C215.712 246.598 217.394 241.563 218.692 236.385H277.499L243.43 150.149L223.988 198.928C223.879 183.834 221.099 169.927 215.648 157.208C213.906 153.078 211.941 149.119 209.753 145.333L231.408 92.7002H256.128L344.502 309H306.186L289.706 267.285H205.462ZM188.486 287.996L180.114 309H155.47C155.499 308.989 155.527 308.977 155.556 308.966C168.059 303.772 179.036 296.782 188.486 287.996Z" fill="#E30011"/>
<path d="M47.895 309V276.555H104.751C119.583 276.555 132.561 273.362 143.685 266.976C155.015 260.59 163.77 251.732 169.95 240.402C176.336 228.866 179.529 215.579 179.529 200.541C179.529 185.709 176.336 172.628 169.95 161.298C163.564 149.968 154.706 141.11 143.376 134.724C132.252 128.338 119.377 125.145 104.751 125.145H47.895V92.7H105.678C121.334 92.7 135.857 95.481 149.247 101.043C162.637 106.399 174.276 114.021 184.164 123.909C194.258 133.591 202.086 145.024 207.648 158.208C213.21 171.186 215.991 185.4 215.991 200.85C215.991 216.094 213.21 230.308 207.648 243.492C202.086 256.676 194.361 268.212 184.473 278.1C174.585 287.782 162.946 295.404 149.556 300.966C136.166 306.322 121.746 309 106.296 309H47.895ZM23.484 309V92.7H59.019V309H23.484Z" fill="#E30011"/>
</svg>
