<svg width="230" height="81" viewBox="0 0 230 81" fill="none" xmlns="http://www.w3.org/2000/svg">
<path fill-rule="evenodd" clip-rule="evenodd" d="M31.7482 64H37.3441L39.7047 58.0776C39.5553 58.2149 39.404 58.3501 39.251 58.4832C38.9173 58.8661 38.5696 59.2384 38.208 59.6C36.3524 61.4169 34.1992 62.8836 31.7482 64ZM42.1666 55.36H60.0428L63.4561 64H71.3921L53.0881 19.2H47.9681L43.5575 29.9202C44.1037 30.821 44.5872 31.7703 45.0081 32.768C46.0263 35.1438 46.5946 37.7195 46.7128 40.4953L50.4581 31.0988L57.5144 48.96H45.5664C45.3984 49.4573 45.2123 49.948 45.0081 50.432C44.2533 52.2212 43.3061 53.8638 42.1666 55.36Z" fill="#E30011"/>
<path d="M9.92 64V57.28H21.696C24.768 57.28 27.456 56.6187 29.76 55.296C32.1067 53.9733 33.92 52.1387 35.2 49.792C36.5227 47.4027 37.184 44.6507 37.184 41.536C37.184 38.464 36.5227 35.7547 35.2 33.408C33.8773 31.0613 32.0427 29.2267 29.696 27.904C27.392 26.5813 24.7253 25.92 21.696 25.92H9.92V19.2H21.888C25.1307 19.2 28.1387 19.776 30.912 20.928C33.6853 22.0373 36.096 23.616 38.144 25.664C40.2347 27.6693 41.856 30.0373 43.008 32.768C44.16 35.456 44.736 38.4 44.736 41.6C44.736 44.7573 44.16 47.7013 43.008 50.432C41.856 53.1627 40.256 55.552 38.208 57.6C36.16 59.6053 33.7493 61.184 30.976 62.336C28.2027 63.4453 25.216 64 22.016 64H9.92ZM4.864 64V19.2H12.224V64H4.864Z" fill="#E30011"/>
<path d="M72.064 56V34.24H75.744V56H72.064ZM64.768 36.96V33.6H83.04V36.96H64.768ZM88.9318 56.32C87.3958 56.32 86.0091 55.9787 84.7718 55.296C83.5558 54.592 82.5851 53.632 81.8598 52.416C81.1558 51.2 80.8038 49.8347 80.8038 48.32C80.8038 46.8053 81.1558 45.4507 81.8598 44.256C82.5638 43.04 83.5131 42.08 84.7078 41.376C85.9238 40.672 87.2678 40.32 88.7398 40.32C90.1691 40.32 91.4278 40.6507 92.5158 41.312C93.6251 41.9733 94.4891 42.88 95.1078 44.032C95.7478 45.184 96.0678 46.496 96.0678 47.968C96.0678 48.224 96.0464 48.4907 96.0037 48.768C95.9824 49.024 95.9398 49.312 95.8758 49.632H83.2678V46.752H94.0518L92.7398 47.904C92.6971 46.9653 92.5158 46.176 92.1958 45.536C91.8758 44.896 91.4171 44.4053 90.8198 44.064C90.2438 43.7227 89.5291 43.552 88.6758 43.552C87.7798 43.552 87.0011 43.744 86.3398 44.128C85.6784 44.512 85.1664 45.056 84.8038 45.76C84.4411 46.4427 84.2598 47.264 84.2598 48.224C84.2598 49.184 84.4518 50.0267 84.8358 50.752C85.2198 51.4773 85.7638 52.0427 86.4678 52.448C87.1718 52.832 87.9824 53.024 88.8998 53.024C89.6891 53.024 90.4144 52.8853 91.0758 52.608C91.7584 52.3307 92.3344 51.9253 92.8038 51.392L95.0438 53.664C94.2971 54.5387 93.3904 55.2 92.3238 55.648C91.2571 56.096 90.1264 56.32 88.9318 56.32ZM105.962 56.32C104.447 56.32 103.071 55.968 101.834 55.264C100.618 54.56 99.6575 53.6 98.9535 52.384C98.2495 51.168 97.8975 49.8133 97.8975 48.32C97.8975 46.8053 98.2495 45.4507 98.9535 44.256C99.6575 43.04 100.618 42.08 101.834 41.376C103.071 40.672 104.447 40.32 105.962 40.32C107.156 40.32 108.266 40.5547 109.29 41.024C110.335 41.472 111.22 42.1227 111.946 42.976L109.642 45.312C109.194 44.7787 108.65 44.384 108.01 44.128C107.391 43.8507 106.708 43.712 105.962 43.712C105.087 43.712 104.308 43.9147 103.626 44.32C102.964 44.704 102.442 45.2373 102.058 45.92C101.695 46.6027 101.514 47.4027 101.514 48.32C101.514 49.216 101.695 50.016 102.058 50.72C102.442 51.4027 102.964 51.9467 103.626 52.352C104.308 52.736 105.087 52.928 105.962 52.928C106.708 52.928 107.391 52.8 108.01 52.544C108.65 52.2667 109.194 51.8613 109.642 51.328L111.946 53.664C111.22 54.5173 110.335 55.1787 109.29 55.648C108.266 56.096 107.156 56.32 105.962 56.32ZM125.011 56V47.136C125.011 46.112 124.681 45.2693 124.019 44.608C123.379 43.9467 122.547 43.616 121.523 43.616C120.841 43.616 120.233 43.7653 119.699 44.064C119.166 44.3627 118.75 44.7787 118.451 45.312C118.153 45.8453 118.003 46.4533 118.003 47.136L116.627 46.368C116.627 45.1947 116.883 44.16 117.395 43.264C117.907 42.3467 118.611 41.632 119.507 41.12C120.425 40.5867 121.449 40.32 122.579 40.32C123.731 40.32 124.755 40.576 125.651 41.088C126.547 41.6 127.251 42.3147 127.763 43.232C128.275 44.128 128.531 45.1733 128.531 46.368V56H125.011ZM114.483 56V32.96H118.003V56H114.483ZM142.636 56V47.136C142.636 46.112 142.306 45.2693 141.644 44.608C141.004 43.9467 140.172 43.616 139.148 43.616C138.466 43.616 137.858 43.7653 137.324 44.064C136.791 44.3627 136.375 44.7787 136.076 45.312C135.778 45.8453 135.628 46.4533 135.628 47.136L134.252 46.368C134.252 45.1947 134.508 44.16 135.02 43.264C135.532 42.3467 136.236 41.632 137.132 41.12C138.05 40.5867 139.074 40.32 140.204 40.32C141.356 40.32 142.38 40.6187 143.276 41.216C144.172 41.792 144.876 42.5493 145.388 43.488C145.9 44.4053 146.156 45.3653 146.156 46.368V56H142.636ZM132.108 56V40.64H135.628V56H132.108ZM156.773 56.32C155.28 56.32 153.925 55.968 152.709 55.264C151.493 54.5387 150.523 53.568 149.797 52.352C149.093 51.136 148.741 49.7813 148.741 48.288C148.741 46.7947 149.093 45.4507 149.797 44.256C150.523 43.0613 151.493 42.112 152.709 41.408C153.925 40.6827 155.28 40.32 156.773 40.32C158.288 40.32 159.653 40.672 160.869 41.376C162.085 42.08 163.045 43.04 163.749 44.256C164.475 45.4507 164.837 46.7947 164.837 48.288C164.837 49.7813 164.475 51.136 163.749 52.352C163.045 53.568 162.085 54.5387 160.869 55.264C159.653 55.968 158.288 56.32 156.773 56.32ZM156.773 52.928C157.648 52.928 158.416 52.736 159.077 52.352C159.76 51.9467 160.283 51.392 160.645 50.688C161.029 49.984 161.221 49.184 161.221 48.288C161.221 47.392 161.029 46.6027 160.645 45.92C160.261 45.2373 159.739 44.704 159.077 44.32C158.416 43.9147 157.648 43.712 156.773 43.712C155.92 43.712 155.152 43.9147 154.469 44.32C153.808 44.704 153.285 45.2373 152.901 45.92C152.539 46.6027 152.357 47.392 152.357 48.288C152.357 49.184 152.539 49.984 152.901 50.688C153.285 51.392 153.808 51.9467 154.469 52.352C155.152 52.736 155.92 52.928 156.773 52.928ZM167.765 56V32.96H171.285V56H167.765ZM182.242 56.32C180.749 56.32 179.394 55.968 178.178 55.264C176.962 54.5387 175.991 53.568 175.266 52.352C174.562 51.136 174.21 49.7813 174.21 48.288C174.21 46.7947 174.562 45.4507 175.266 44.256C175.991 43.0613 176.962 42.112 178.178 41.408C179.394 40.6827 180.749 40.32 182.242 40.32C183.757 40.32 185.122 40.672 186.338 41.376C187.554 42.08 188.514 43.04 189.218 44.256C189.943 45.4507 190.306 46.7947 190.306 48.288C190.306 49.7813 189.943 51.136 189.218 52.352C188.514 53.568 187.554 54.5387 186.338 55.264C185.122 55.968 183.757 56.32 182.242 56.32ZM182.242 52.928C183.117 52.928 183.885 52.736 184.546 52.352C185.229 51.9467 185.751 51.392 186.114 50.688C186.498 49.984 186.69 49.184 186.69 48.288C186.69 47.392 186.498 46.6027 186.114 45.92C185.73 45.2373 185.207 44.704 184.546 44.32C183.885 43.9147 183.117 43.712 182.242 43.712C181.389 43.712 180.621 43.9147 179.938 44.32C179.277 44.704 178.754 45.2373 178.37 45.92C178.007 46.6027 177.826 47.392 177.826 48.288C177.826 49.184 178.007 49.984 178.37 50.688C178.754 51.392 179.277 51.9467 179.938 52.352C180.621 52.736 181.389 52.928 182.242 52.928ZM199.633 62.72C198.012 62.72 196.593 62.4213 195.377 61.824C194.161 61.248 193.18 60.4267 192.433 59.36L194.737 57.056C195.356 57.824 196.06 58.4 196.849 58.784C197.639 59.168 198.588 59.36 199.697 59.36C201.084 59.36 202.183 58.9973 202.993 58.272C203.804 57.568 204.209 56.5973 204.209 55.36V51.584L204.817 48.192L204.209 44.768V40.64H207.729V55.36C207.729 56.832 207.388 58.112 206.705 59.2C206.023 60.3093 205.073 61.1733 203.857 61.792C202.641 62.4107 201.233 62.72 199.633 62.72ZM199.473 55.68C198.108 55.68 196.871 55.3493 195.761 54.688C194.673 54.0053 193.809 53.0773 193.169 51.904C192.551 50.7307 192.241 49.4187 192.241 47.968C192.241 46.5173 192.551 45.216 193.169 44.064C193.809 42.912 194.673 42.0053 195.761 41.344C196.871 40.6613 198.108 40.32 199.473 40.32C200.689 40.32 201.756 40.5653 202.673 41.056C203.591 41.5467 204.305 42.2293 204.817 43.104C205.329 43.9573 205.585 44.96 205.585 46.112V49.888C205.585 51.0187 205.319 52.0213 204.785 52.896C204.273 53.7707 203.559 54.4533 202.641 54.944C201.724 55.4347 200.668 55.68 199.473 55.68ZM200.177 52.352C201.031 52.352 201.777 52.1707 202.417 51.808C203.057 51.4453 203.548 50.944 203.889 50.304C204.252 49.6427 204.433 48.8747 204.433 48C204.433 47.1253 204.252 46.368 203.889 45.728C203.548 45.0667 203.057 44.5547 202.417 44.192C201.777 43.8293 201.031 43.648 200.177 43.648C199.324 43.648 198.567 43.8293 197.905 44.192C197.265 44.5547 196.764 45.0667 196.401 45.728C196.039 46.368 195.857 47.1253 195.857 48C195.857 48.8533 196.039 49.6107 196.401 50.272C196.764 50.9333 197.265 51.4453 197.905 51.808C198.567 52.1707 199.324 52.352 200.177 52.352ZM216.6 56.16L210.04 40.64H213.911L218.392 52.032H217.272L222.008 40.64H225.912L218.776 56.16H216.6ZM212.024 62.4L216.792 52.576L218.776 56.16L215.928 62.4H212.024Z" fill="white"/>
</svg>
