<svg width="100" height="100" viewBox="0 0 100 100" fill="none" xmlns="http://www.w3.org/2000/svg">
<path d="M81.25 68.75C75.4437 68.75 70.5938 72.75 69.1938 78.125H30.8062C30.2447 75.9774 29.1213 74.018 27.5517 72.4483C25.982 70.8787 24.0226 69.7553 21.875 69.1938V59.375C21.875 55.9313 24.6781 53.125 28.125 53.125H71.875C78.7688 53.125 84.375 47.5187 84.375 40.625V30.8062C89.75 29.4094 93.75 24.5562 93.75 18.75C93.75 11.8562 88.1438 6.25 81.25 6.25C74.3562 6.25 68.75 11.8562 68.75 18.75C68.75 24.5562 72.75 29.4062 78.125 30.8062V40.625C78.125 44.0719 75.3219 46.875 71.875 46.875H28.125C21.2312 46.875 15.625 52.4813 15.625 59.375V69.1938C10.25 70.5906 6.25 75.4437 6.25 81.25C6.25 88.1438 11.8562 93.75 18.75 93.75C24.5562 93.75 29.4062 89.75 30.8062 84.375H69.1938C70.5906 89.75 75.4437 93.75 81.25 93.75C88.1438 93.75 93.75 88.1438 93.75 81.25C93.75 74.3562 88.1438 68.75 81.25 68.75ZM75 18.75C75 15.3062 77.8031 12.5 81.25 12.5C84.6969 12.5 87.5 15.3062 87.5 18.75C87.5 22.1938 84.6969 25 81.25 25C77.8031 25 75 22.1969 75 18.75ZM18.75 87.5C15.3031 87.5 12.5 84.6969 12.5 81.25C12.5 77.8031 15.3031 75 18.75 75C22.1969 75 25 77.8063 25 81.25C25 84.6937 22.1969 87.5 18.75 87.5ZM81.25 87.5C77.8031 87.5 75 84.6969 75 81.25C75 77.8031 77.8031 75 81.25 75C84.6969 75 87.5 77.8063 87.5 81.25C87.5 84.6937 84.6969 87.5 81.25 87.5Z" fill="black"/>
<path d="M18.75 31.25C21.0625 31.25 23.2 30.5781 25.0594 29.4781L36.2063 40.625L40.625 36.2063L29.4781 25.0594C30.6264 23.1543 31.2386 20.9744 31.25 18.75C31.25 11.8562 25.6438 6.25 18.75 6.25C11.8562 6.25 6.25 11.8562 6.25 18.75C6.25 25.6438 11.8562 31.25 18.75 31.25ZM18.75 12.5C22.1969 12.5 25 15.3062 25 18.75C25 22.1938 22.1969 25 18.75 25C15.3031 25 12.5 22.1969 12.5 18.75C12.5 15.3031 15.3031 12.5 18.75 12.5Z" fill="black"/>
</svg>
