<svg width="162" height="31" viewBox="0 0 162 31" fill="none" xmlns="http://www.w3.org/2000/svg">
<path d="M8.064 24V2.24H11.744V24H8.064ZM0.768 4.96V1.6H19.04V4.96H0.768ZM24.9318 24.32C23.3958 24.32 22.0091 23.9787 20.7718 23.296C19.5558 22.592 18.5851 21.632 17.8598 20.416C17.1558 19.2 16.8038 17.8347 16.8038 16.32C16.8038 14.8053 17.1558 13.4507 17.8598 12.256C18.5638 11.04 19.5131 10.08 20.7078 9.376C21.9238 8.672 23.2678 8.32 24.7398 8.32C26.1691 8.32 27.4278 8.65067 28.5158 9.312C29.6251 9.97333 30.4891 10.88 31.1078 12.032C31.7478 13.184 32.0678 14.496 32.0678 15.968C32.0678 16.224 32.0464 16.4907 32.0037 16.768C31.9824 17.024 31.9398 17.312 31.8758 17.632H19.2678V14.752H30.0518L28.7398 15.904C28.6971 14.9653 28.5158 14.176 28.1958 13.536C27.8758 12.896 27.4171 12.4053 26.8198 12.064C26.2438 11.7227 25.5291 11.552 24.6758 11.552C23.7798 11.552 23.0011 11.744 22.3398 12.128C21.6784 12.512 21.1664 13.056 20.8038 13.76C20.4411 14.4427 20.2598 15.264 20.2598 16.224C20.2598 17.184 20.4518 18.0267 20.8358 18.752C21.2198 19.4773 21.7638 20.0427 22.4678 20.448C23.1718 20.832 23.9824 21.024 24.8998 21.024C25.6891 21.024 26.4144 20.8853 27.0758 20.608C27.7584 20.3307 28.3344 19.9253 28.8038 19.392L31.0438 21.664C30.2971 22.5387 29.3904 23.2 28.3238 23.648C27.2571 24.096 26.1264 24.32 24.9318 24.32ZM41.9615 24.32C40.4468 24.32 39.0708 23.968 37.8335 23.264C36.6175 22.56 35.6575 21.6 34.9535 20.384C34.2495 19.168 33.8975 17.8133 33.8975 16.32C33.8975 14.8053 34.2495 13.4507 34.9535 12.256C35.6575 11.04 36.6175 10.08 37.8335 9.376C39.0708 8.672 40.4468 8.32 41.9615 8.32C43.1562 8.32 44.2655 8.55467 45.2895 9.024C46.3348 9.472 47.2202 10.1227 47.9455 10.976L45.6415 13.312C45.1935 12.7787 44.6495 12.384 44.0095 12.128C43.3908 11.8507 42.7082 11.712 41.9615 11.712C41.0868 11.712 40.3082 11.9147 39.6255 12.32C38.9642 12.704 38.4415 13.2373 38.0575 13.92C37.6948 14.6027 37.5135 15.4027 37.5135 16.32C37.5135 17.216 37.6948 18.016 38.0575 18.72C38.4415 19.4027 38.9642 19.9467 39.6255 20.352C40.3082 20.736 41.0868 20.928 41.9615 20.928C42.7082 20.928 43.3908 20.8 44.0095 20.544C44.6495 20.2667 45.1935 19.8613 45.6415 19.328L47.9455 21.664C47.2202 22.5173 46.3348 23.1787 45.2895 23.648C44.2655 24.096 43.1562 24.32 41.9615 24.32ZM61.0113 24V15.136C61.0113 14.112 60.6806 13.2693 60.0193 12.608C59.3793 11.9467 58.5473 11.616 57.5233 11.616C56.8406 11.616 56.2326 11.7653 55.6993 12.064C55.1659 12.3627 54.7499 12.7787 54.4513 13.312C54.1526 13.8453 54.0033 14.4533 54.0033 15.136L52.6273 14.368C52.6273 13.1947 52.8833 12.16 53.3953 11.264C53.9073 10.3467 54.6113 9.632 55.5073 9.12C56.4246 8.58667 57.4486 8.32 58.5793 8.32C59.7313 8.32 60.7553 8.576 61.6513 9.088C62.5473 9.6 63.2513 10.3147 63.7633 11.232C64.2753 12.128 64.5312 13.1733 64.5312 14.368V24H61.0113ZM50.4833 24V0.959999H54.0033V24H50.4833ZM78.6363 24V15.136C78.6363 14.112 78.3056 13.2693 77.6443 12.608C77.0043 11.9467 76.1723 11.616 75.1483 11.616C74.4656 11.616 73.8576 11.7653 73.3243 12.064C72.7909 12.3627 72.3749 12.7787 72.0763 13.312C71.7776 13.8453 71.6283 14.4533 71.6283 15.136L70.2523 14.368C70.2523 13.1947 70.5083 12.16 71.0203 11.264C71.5323 10.3467 72.2363 9.632 73.1323 9.12C74.0496 8.58667 75.0736 8.32 76.2043 8.32C77.3563 8.32 78.3803 8.61867 79.2763 9.216C80.1723 9.792 80.8763 10.5493 81.3883 11.488C81.9003 12.4053 82.1562 13.3653 82.1562 14.368V24H78.6363ZM68.1083 24V8.64H71.6283V24H68.1083ZM92.7733 24.32C91.2799 24.32 89.9253 23.968 88.7093 23.264C87.4933 22.5387 86.5226 21.568 85.7973 20.352C85.0933 19.136 84.7413 17.7813 84.7413 16.288C84.7413 14.7947 85.0933 13.4507 85.7973 12.256C86.5226 11.0613 87.4933 10.112 88.7093 9.408C89.9253 8.68267 91.2799 8.32 92.7733 8.32C94.2879 8.32 95.6533 8.672 96.8693 9.376C98.0853 10.08 99.0453 11.04 99.7493 12.256C100.475 13.4507 100.837 14.7947 100.837 16.288C100.837 17.7813 100.475 19.136 99.7493 20.352C99.0453 21.568 98.0853 22.5387 96.8693 23.264C95.6533 23.968 94.2879 24.32 92.7733 24.32ZM92.7733 20.928C93.6479 20.928 94.4159 20.736 95.0773 20.352C95.7599 19.9467 96.2826 19.392 96.6453 18.688C97.0293 17.984 97.2213 17.184 97.2213 16.288C97.2213 15.392 97.0293 14.6027 96.6453 13.92C96.2613 13.2373 95.7386 12.704 95.0773 12.32C94.4159 11.9147 93.6479 11.712 92.7733 11.712C91.9199 11.712 91.1519 11.9147 90.4693 12.32C89.8079 12.704 89.2853 13.2373 88.9013 13.92C88.5386 14.6027 88.3573 15.392 88.3573 16.288C88.3573 17.184 88.5386 17.984 88.9013 18.688C89.2853 19.392 89.8079 19.9467 90.4693 20.352C91.1519 20.736 91.9199 20.928 92.7733 20.928ZM103.765 24V0.959999H107.285V24H103.765ZM118.242 24.32C116.749 24.32 115.394 23.968 114.178 23.264C112.962 22.5387 111.991 21.568 111.266 20.352C110.562 19.136 110.21 17.7813 110.21 16.288C110.21 14.7947 110.562 13.4507 111.266 12.256C111.991 11.0613 112.962 10.112 114.178 9.408C115.394 8.68267 116.749 8.32 118.242 8.32C119.757 8.32 121.122 8.672 122.338 9.376C123.554 10.08 124.514 11.04 125.218 12.256C125.943 13.4507 126.306 14.7947 126.306 16.288C126.306 17.7813 125.943 19.136 125.218 20.352C124.514 21.568 123.554 22.5387 122.338 23.264C121.122 23.968 119.757 24.32 118.242 24.32ZM118.242 20.928C119.117 20.928 119.885 20.736 120.546 20.352C121.229 19.9467 121.751 19.392 122.114 18.688C122.498 17.984 122.69 17.184 122.69 16.288C122.69 15.392 122.498 14.6027 122.114 13.92C121.73 13.2373 121.207 12.704 120.546 12.32C119.885 11.9147 119.117 11.712 118.242 11.712C117.389 11.712 116.621 11.9147 115.938 12.32C115.277 12.704 114.754 13.2373 114.37 13.92C114.007 14.6027 113.826 15.392 113.826 16.288C113.826 17.184 114.007 17.984 114.37 18.688C114.754 19.392 115.277 19.9467 115.938 20.352C116.621 20.736 117.389 20.928 118.242 20.928ZM135.633 30.72C134.012 30.72 132.593 30.4213 131.377 29.824C130.161 29.248 129.18 28.4267 128.433 27.36L130.737 25.056C131.356 25.824 132.06 26.4 132.849 26.784C133.639 27.168 134.588 27.36 135.697 27.36C137.084 27.36 138.183 26.9973 138.993 26.272C139.804 25.568 140.209 24.5973 140.209 23.36V19.584L140.817 16.192L140.209 12.768V8.64H143.729V23.36C143.729 24.832 143.388 26.112 142.705 27.2C142.023 28.3093 141.073 29.1733 139.857 29.792C138.641 30.4107 137.233 30.72 135.633 30.72ZM135.473 23.68C134.108 23.68 132.871 23.3493 131.761 22.688C130.673 22.0053 129.809 21.0773 129.169 19.904C128.551 18.7307 128.241 17.4187 128.241 15.968C128.241 14.5173 128.551 13.216 129.169 12.064C129.809 10.912 130.673 10.0053 131.761 9.344C132.871 8.66133 134.108 8.32 135.473 8.32C136.689 8.32 137.756 8.56533 138.673 9.056C139.591 9.54667 140.305 10.2293 140.817 11.104C141.329 11.9573 141.585 12.96 141.585 14.112V17.888C141.585 19.0187 141.319 20.0213 140.785 20.896C140.273 21.7707 139.559 22.4533 138.641 22.944C137.724 23.4347 136.668 23.68 135.473 23.68ZM136.177 20.352C137.031 20.352 137.777 20.1707 138.417 19.808C139.057 19.4453 139.548 18.944 139.889 18.304C140.252 17.6427 140.433 16.8747 140.433 16C140.433 15.1253 140.252 14.368 139.889 13.728C139.548 13.0667 139.057 12.5547 138.417 12.192C137.777 11.8293 137.031 11.648 136.177 11.648C135.324 11.648 134.567 11.8293 133.905 12.192C133.265 12.5547 132.764 13.0667 132.401 13.728C132.039 14.368 131.857 15.1253 131.857 16C131.857 16.8533 132.039 17.6107 132.401 18.272C132.764 18.9333 133.265 19.4453 133.905 19.808C134.567 20.1707 135.324 20.352 136.177 20.352ZM152.6 24.16L146.04 8.64H149.911L154.392 20.032H153.272L158.008 8.64H161.912L154.776 24.16H152.6ZM148.024 30.4L152.792 20.576L154.776 24.16L151.928 30.4H148.024Z" fill="white"/>
</svg>
