<svg width="100" height="100" viewBox="0 0 100 100" fill="none" xmlns="http://www.w3.org/2000/svg">
<path d="M78.125 31.25L83.1031 40.625L93.75 41.9187L85.9375 48.9594L87.5 59.375L78.125 53.5156L68.75 59.375L70.3125 48.9594L62.5 41.9187L73.4375 40.625L78.125 31.25ZM68.75 93.75H62.5V78.125C62.495 73.9825 60.8472 70.0111 57.9181 67.0819C54.9889 64.1528 51.0175 62.505 46.875 62.5H28.125C23.9825 62.505 20.0111 64.1528 17.0819 67.0819C14.1528 70.0111 12.505 73.9825 12.5 78.125V93.75H6.25V78.125C6.25827 72.3259 8.5656 66.7667 12.6662 62.6662C16.7667 58.5656 22.3259 56.2583 28.125 56.25H46.875C52.6741 56.2583 58.2333 58.5656 62.3338 62.6662C66.4344 66.7667 68.7417 72.3259 68.75 78.125V93.75ZM37.5 12.5C40.5903 12.5 43.6113 13.4164 46.1808 15.1333C48.7503 16.8502 50.753 19.2905 51.9356 22.1456C53.1182 25.0007 53.4277 28.1423 52.8248 31.1733C52.2219 34.2042 50.7337 36.9883 48.5485 39.1735C46.3633 41.3587 43.5792 42.8469 40.5483 43.4498C37.5173 44.0527 34.3757 43.7432 31.5206 42.5606C28.6655 41.378 26.2252 39.3753 24.5083 36.8058C22.7914 34.2363 21.875 31.2153 21.875 28.125C21.875 23.981 23.5212 20.0067 26.4515 17.0765C29.3817 14.1462 33.356 12.5 37.5 12.5ZM37.5 6.25C33.1735 6.25 28.9442 7.53295 25.3469 9.9366C21.7496 12.3403 18.9458 15.7567 17.2901 19.7538C15.6345 23.7509 15.2013 28.1493 16.0453 32.3926C16.8894 36.6359 18.9728 40.5337 22.032 43.593C25.0913 46.6522 28.9891 48.7356 33.2324 49.5797C37.4757 50.4237 41.8741 49.9905 45.8712 48.3349C49.8683 46.6792 53.2847 43.8754 55.6884 40.2781C58.0921 36.6808 59.375 32.4515 59.375 28.125C59.375 22.3234 57.0703 16.7594 52.968 12.657C48.8656 8.55468 43.3016 6.25 37.5 6.25Z" fill="black"/>
</svg>
