<svg xmlns="http://www.w3.org/2000/svg" viewBox="0 0 30.68 29.7"><defs><style>.cls-1{fill:#222;stroke:#222;stroke-miterlimit:10;stroke-width:0.7px;}</style></defs><g id="레이어_2" data-name="레이어 2"><g id="레이어_1-2" data-name="레이어 1"><path class="cls-1" d="M11.53,19.16A11.22,11.22,0,0,0,.38,29.35h1a10.14,10.14,0,0,1,20.19,0h1.05A11.2,11.2,0,0,0,11.53,19.16Z"/><path class="cls-1" d="M19.67,8.49a8.14,8.14,0,1,0-8.14,8.15A8.15,8.15,0,0,0,19.67,8.49Zm-8.14,7.1a7.1,7.1,0,1,1,7.09-7.1A7.11,7.11,0,0,1,11.53,15.59Z"/><path class="cls-1" d="M26.18,9.88a6.34,6.34,0,0,1-4.51,7V18A7.39,7.39,0,0,0,23.73,4.46l-.3,1A6.3,6.3,0,0,1,26.18,9.88Z"/><path class="cls-1" d="M24.63,20.59l-.43,1a10.16,10.16,0,0,1,5,7.8h1.05A11.21,11.21,0,0,0,24.63,20.59Z"/></g></g></svg>